<svg height="32" viewBox="0 0 32 32" width="32" xmlns="http://www.w3.org/2000/svg"><path d="m7.6 12.781v7.238c0 .962-.756 1.731-1.719 1.731-.956 0-1.881-.775-1.881-1.731v-7.238c0-.944.925-1.719 1.881-1.719.944 0 1.719.775 1.719 1.719zm.675 9.813c0 1.025.825 1.85 1.85 1.85h1.244l.019 3.819c0 2.306 3.45 2.288 3.45 0v-3.819h2.325v3.819c0 2.294 3.469 2.3 3.469 0v-3.819h1.262c1.012 0 1.837-.825 1.837-1.85v-11.212h-15.456zm15.5-11.819h-15.569c0-2.675 1.6-5 3.975-6.212l-1.194-2.206c-.175-.306.269-.5.419-.238l1.212 2.225c2.181-.969 4.688-.919 6.769 0l1.206-2.219c.156-.269.594-.069.419.238l-1.194 2.2c2.356 1.212 3.956 3.538 3.956 6.212zm-10.669-3.469c0-.356-.287-.656-.656-.656-.356 0-.637.3-.637.656s.288.656.637.656c.369 0 .656-.3.656-.656zm7.088 0c0-.356-.288-.656-.638-.656-.369 0-.656.3-.656.656s.288.656.656.656c.35 0 .638-.3.638-.656zm5.925 3.757c-.944 0-1.719.756-1.719 1.719v7.238c0 .962.775 1.731 1.719 1.731.963 0 1.881-.775 1.881-1.731v-7.238c0-.962-.925-1.719-1.881-1.719z"/></svg>